# WaveFront *.obj file (generated by Autodesk ATF)

mtllib Block v1.mtl

g Body1

v 7.620000 7.620000 3.429000
v 0.000000 7.620000 3.429000
v 0.000000 0.000000 0.503956
v 7.620000 0.000000 0.503956
v 0.000000 0.000000 0.000000
v 7.620000 0.000000 0.000000
v 0.000000 7.620000 0.000000
v 7.620000 7.620000 0.000000
vt -3.683000 -4.659726 0.000000
vt 3.937000 -4.659726 0.000000
vt -3.683000 3.502398 0.000000
vt 3.937000 3.502398 0.000000
vt 7.620000 0.503956 0.000000
vt 0.000000 0.503956 0.000000
vt 7.620000 0.000000 0.000000
vt 0.000000 0.000000 0.000000
vt 0.000000 3.429000 0.000000
vt 0.000000 0.000000 0.000000
vt 7.620000 0.503956 0.000000
vt 7.620000 0.000000 0.000000
vt 0.000000 0.000000 0.000000
vt 7.620000 0.000000 0.000000
vt 0.000000 3.429000 0.000000
vt 7.620000 3.429000 0.000000
vt 7.620000 3.429000 0.000000
vt 0.000000 0.503956 0.000000
vt 7.620000 0.000000 0.000000
vt 0.000000 0.000000 0.000000
vt 3.810000 3.810000 0.000000
vt -3.810000 3.810000 0.000000
vt 3.810000 -3.810000 0.000000
vt -3.810000 -3.810000 0.000000
vn 0.000000 -0.358368 0.933580
vn 0.000000 -0.358368 0.933580
vn 0.000000 -0.358368 0.933580
vn 0.000000 -0.358368 0.933580
vn 0.000000 -1.000000 0.000000
vn 0.000000 -1.000000 0.000000
vn 0.000000 -1.000000 0.000000
vn 0.000000 -1.000000 0.000000
vn -1.000000 0.000000 0.000000
vn -1.000000 0.000000 0.000000
vn -1.000000 0.000000 0.000000
vn -1.000000 0.000000 0.000000
vn 0.000000 1.000000 -0.000000
vn 0.000000 1.000000 -0.000000
vn 0.000000 1.000000 -0.000000
vn 0.000000 1.000000 -0.000000
vn 1.000000 0.000000 0.000000
vn 1.000000 0.000000 0.000000
vn 1.000000 0.000000 0.000000
vn 1.000000 0.000000 0.000000
vn -0.000000 -0.000000 -1.000000
vn -0.000000 -0.000000 -1.000000
vn -0.000000 -0.000000 -1.000000
vn -0.000000 -0.000000 -1.000000
usemtl Steel_-_Satin
f 1/1/1 2/2/2 4/3/3
f 4/3/3 2/2/2 3/4/4
f 4/5/5 3/6/6 6/7/7
f 6/7/7 3/6/6 5/8/8
f 2/9/9 7/10/10 3/11/11
f 3/11/11 7/10/10 5/12/12
f 8/13/13 7/14/14 1/15/15
f 1/15/15 7/14/14 2/16/16
f 1/17/17 4/18/18 8/19/19
f 8/19/19 4/18/18 6/20/20
f 7/21/21 8/22/22 5/23/23
f 5/23/23 8/22/22 6/24/24
# 8 vertices
# 24 texture params
# 24 normals
# 12 facets

# 1 groups
